<svg id="Layer_1" enable-background="new 0 0 64 64" height="512" viewBox="0 0 64 64" width="512" xmlns="http://www.w3.org/2000/svg"><path d="m57.4 38c-.3-1.6-1.9-2.7-3.5-2.4-.1 0-.2 0-.3.1l-1.1.3c-1.1-1-2.4-1.8-3.8-2.3l-8.7-3.1c1-1.5 1.7-3.2 1.9-5l2.4-1.2c1-.5 1.7-1.5 1.7-2.7v-2.3c0-.5-.1-.9-.3-1.4-.7-1.3-2.2-2-3.6-1.5v-14.5h-2c0 1.7-1.3 3-3 3h-10.1c-2.8 0-5 2.2-5 5v6.6c-1.6-.5-3.3.4-3.8 1.9-.1.3-.1.6-.1.9v2.3c0 1.1.6 2.2 1.7 2.7l2.4 1.2c.2 1.8.9 3.5 1.9 5l-8.6 3.1c-4.6 1.6-7.5 5.7-7.5 10.4v17.9h47c1.7 0 3-1.3 3-3v-13h-14.2l14.3-4.3zm-7.2-1.3-8.5 2.5-.1.1-2.6.8v-1.1c0-1.1-.9-2-2-2h-2.2c-.5 0-1.1.2-1.4.6l-1.4 1.5-1.4-1.4c-.4-.4-.9-.6-1.4-.6h-2.2c-1.1 0-2 .9-2 2v3c0 1.1.9 2 2 2h2.2c.5 0 1.1-.2 1.4-.6l1.4-1.4 1.4 1.4c.4.4.9.6 1.4.6h.6l.6 3.1v11.8c0 .3.1.7.2 1h-3.2v-14h-2v14h-7.1l-1.9-26.5 3.3-1.2c.8.8 1.8 1.5 2.8 2 2.4 1.2 5.2 1.2 7.6 0 1-.5 2-1.2 2.8-2l9.4 3.3c.9.3 1.6.6 2.3 1.1zm-14.5 5.3h-.8l-1.4-1.5 1.4-1.5h2.1v1.7c-.6.3-1 .7-1.3 1.3zm2.3.4 3.2-1 2.9 2.3-6.4 1.9-.4-2.1c-.1-.4.2-.9.7-1.1zm5.6-1.6 4.6-1.4 2.9 2.3-4.6 1.4zm-13-.3-1.4 1.5h-2.2v-3h2.2zm14 9.5 1-2h4.8l-1 2zm-2.2 0h-4.4v-2h5.4zm-26.3-7.5 1.7-7.6 2.3-.8 1.7 23.4-3.7-9.5 1.1-3.4zm7.9-25.7 5.5-1.4c3.5-.9 7.1-.5 10.3 1.1l.2.1v7.8c0 3.4-2 6.6-5.1 8.1-1.8.9-4 .9-5.9 0-3-1.5-5-4.7-5-8.1zm18.7 1.7c.5-.2 1.1.1 1.3.7v.3 2.3c0 .4-.2.7-.6.9l-1.4.7v-4.7zm-15.7-11.5h10c1.1 0 2.1-.4 3-1v8.4c-3.5-1.5-7.3-1.9-11-1l-5 1.3v-4.7c0-1.7 1.3-3 3-3zm-7 14.8v-2.3c0-.2 0-.3.1-.5.2-.4.7-.7 1.2-.5l.7.2v4.7l-1.4-.7c-.4-.2-.6-.6-.6-.9zm-10 22.3c0-3.6 2.2-6.9 5.6-8.3l-1.7 7.7 2.9 2-.9 2.5 4.6 12h-10.5zm45 15.9h-16c-.6 0-1-.4-1-1v-7h18v7c0 .6-.4 1-1 1zm1-10h-4.4l1-2h3.4zm-2.6-9-2.9-2.3 3.7-1.1h.3c.5 0 .9.3 1 .8l.4 2z"/><path d="m40 55h6v2h-6z"/><path d="m48 55h3v2h-3z"/></svg>